<?xml version="1.0" standalone="no"?><!-- Generator: Gravit.io --><svg xmlns="http://www.w3.org/2000/svg" xmlns:xlink="http://www.w3.org/1999/xlink" style="isolation:isolate" viewBox="0 0 125 25" width="125" height="25"><defs><clipPath id="_clipPath_l4Oy47ez53gqs6PT5aYIFJ6CeSHRNrmW"><rect width="125" height="25"/></clipPath></defs><g clip-path="url(#_clipPath_l4Oy47ez53gqs6PT5aYIFJ6CeSHRNrmW)"><path d=" M 82.508 23.5 L 77.494 23.5 L 77.101 22.714 L 82.901 22.714 L 82.508 23.5 Z  M 83.144 21.929 L 76.858 21.929 L 76.858 21.143 L 82.358 21.143 L 82.358 20.357 L 76.858 20.357 L 76.858 19.571 L 82.358 19.571 L 82.358 18.786 L 76.858 18.786 L 76.858 18 L 83.144 18 L 83.144 21.929 Z  M 77.503 10.565 C 77.405 10.487 77.277 10.459 77.156 10.491 C 77.059 10.519 76.959 10.534 76.858 10.536 C 76.209 10.538 75.682 10.014 75.679 9.365 C 75.678 8.862 75.996 8.414 76.471 8.25 C 76.676 8.179 76.784 7.954 76.712 7.75 C 76.701 7.718 76.686 7.689 76.668 7.661 C 76.304 7.122 76.446 6.389 76.985 6.025 C 77.384 5.756 77.906 5.756 78.304 6.025 C 78.484 6.146 78.728 6.097 78.849 5.917 C 78.867 5.89 78.882 5.86 78.893 5.828 C 79.101 5.218 79.764 4.891 80.375 5.099 C 80.641 5.189 80.866 5.373 81.008 5.616 C 81.119 5.802 81.36 5.863 81.547 5.752 C 81.565 5.741 81.583 5.728 81.6 5.714 C 82.087 5.292 82.824 5.345 83.246 5.832 C 83.373 5.979 83.461 6.155 83.503 6.345 C 83.537 6.492 83.652 6.607 83.799 6.641 C 84.428 6.779 84.826 7.402 84.687 8.031 C 84.647 8.211 84.565 8.38 84.448 8.522 C 84.332 8.666 84.332 8.871 84.448 9.015 C 84.619 9.222 84.714 9.482 84.715 9.75 C 84.715 10.401 84.188 10.929 83.537 10.929 C 83.428 10.926 83.32 10.909 83.216 10.877 C 83.008 10.818 82.79 10.939 82.731 11.147 C 82.729 11.156 82.726 11.165 82.725 11.174 C 82.607 11.717 82.128 12.105 81.572 12.107 C 81.365 12.106 81.161 12.049 80.983 11.943 C 80.795 11.834 80.555 11.898 80.446 12.086 C 80.412 12.146 80.394 12.213 80.394 12.282 L 80.394 17.214 L 79.608 17.214 L 79.608 12.444 C 79.608 12.227 79.432 12.052 79.215 12.052 C 79.182 12.052 79.149 12.056 79.117 12.064 C 78.499 12.237 77.859 11.876 77.686 11.258 C 77.659 11.159 77.644 11.056 77.644 10.953 C 77.644 10.94 77.65 10.9 77.65 10.887 C 77.655 10.762 77.6 10.643 77.503 10.565 L 77.503 10.565 Z  M 80.001 1.5 C 84.121 1.498 87.463 4.836 87.465 8.956 C 87.466 11.776 85.878 14.355 83.359 15.623 C 83.227 15.69 83.144 15.826 83.144 15.974 L 83.144 17.214 L 81.179 17.214 L 81.179 12.854 C 81.309 12.88 81.44 12.893 81.572 12.893 C 82.355 12.89 83.062 12.424 83.375 11.706 C 84.45 11.802 85.398 11.008 85.493 9.933 C 85.499 9.872 85.501 9.811 85.501 9.75 C 85.501 9.404 85.408 9.065 85.231 8.768 C 85.408 8.471 85.501 8.131 85.501 7.786 C 85.504 6.957 84.985 6.217 84.204 5.939 C 83.844 4.925 82.73 4.394 81.715 4.754 C 81.619 4.788 81.526 4.83 81.437 4.879 C 81.068 4.476 80.547 4.248 80.001 4.25 C 79.329 4.252 78.705 4.597 78.347 5.166 C 77.334 4.777 76.198 5.283 75.809 6.296 C 75.636 6.749 75.636 7.25 75.809 7.703 C 74.893 8.28 74.618 9.49 75.195 10.406 C 75.562 10.989 76.208 11.337 76.897 11.321 C 77.085 12.235 77.889 12.892 78.822 12.893 L 78.822 17.214 L 76.858 17.214 L 76.858 15.974 C 76.858 15.826 76.775 15.69 76.642 15.623 C 72.962 13.771 71.481 9.286 73.333 5.606 C 74.601 3.087 77.181 1.498 80.001 1.5 L 80.001 1.5 Z " fill="rgb(255,255,255)"/><path d=" M 5.953 15.9 L 5.953 15.9 Q 3.913 15.9 2.693 14.63 L 2.693 14.63 L 2.693 14.63 Q 1.473 13.36 1.353 11.16 L 1.353 11.16 L 1.333 10.48 L 1.353 9.82 L 1.353 9.82 Q 1.473 7.66 2.693 6.38 L 2.693 6.38 L 2.693 6.38 Q 3.913 5.1 5.953 5.1 L 5.953 5.1 L 5.953 5.1 Q 8.153 5.1 9.363 6.5 L 9.363 6.5 L 9.363 6.5 Q 10.573 7.9 10.573 10.3 L 10.573 10.3 L 10.573 10.66 L 10.573 10.66 Q 10.573 10.86 10.443 10.99 L 10.443 10.99 L 10.443 10.99 Q 10.313 11.12 10.113 11.12 L 10.113 11.12 L 3.173 11.12 L 3.173 11.3 L 3.173 11.3 Q 3.233 12.6 3.973 13.52 L 3.973 13.52 L 3.973 13.52 Q 4.713 14.44 5.933 14.44 L 5.933 14.44 L 5.933 14.44 Q 6.873 14.44 7.463 14.07 L 7.463 14.07 L 7.463 14.07 Q 8.053 13.7 8.353 13.3 L 8.353 13.3 L 8.353 13.3 Q 8.533 13.06 8.633 13.01 L 8.633 13.01 L 8.633 13.01 Q 8.733 12.96 8.973 12.96 L 8.973 12.96 L 9.853 12.96 L 9.853 12.96 Q 10.033 12.96 10.163 13.06 L 10.163 13.06 L 10.163 13.06 Q 10.293 13.16 10.293 13.32 L 10.293 13.32 L 10.293 13.32 Q 10.293 13.76 9.753 14.38 L 9.753 14.38 L 9.753 14.38 Q 9.213 15 8.223 15.45 L 8.223 15.45 L 8.223 15.45 Q 7.233 15.9 5.953 15.9 L 5.953 15.9 L 5.953 15.9 Z  M 3.173 9.76 L 8.753 9.76 L 8.753 9.7 L 8.753 9.7 Q 8.753 8.3 7.993 7.42 L 7.993 7.42 L 7.993 7.42 Q 7.233 6.54 5.953 6.54 L 5.953 6.54 L 5.953 6.54 Q 4.653 6.54 3.913 7.42 L 3.913 7.42 L 3.913 7.42 Q 3.173 8.3 3.173 9.7 L 3.173 9.7 L 3.173 9.76 L 3.173 9.76 Z  M 16.893 15.9 L 16.893 15.9 Q 14.993 15.9 13.953 14.67 L 13.953 14.67 L 13.953 14.67 Q 12.913 13.44 12.913 11.4 L 12.913 11.4 L 12.913 5.76 L 12.913 5.76 Q 12.913 5.56 13.043 5.43 L 13.043 5.43 L 13.043 5.43 Q 13.173 5.3 13.373 5.3 L 13.373 5.3 L 14.293 5.3 L 14.293 5.3 Q 14.493 5.3 14.623 5.43 L 14.623 5.43 L 14.623 5.43 Q 14.753 5.56 14.753 5.76 L 14.753 5.76 L 14.753 11.3 L 14.753 11.3 Q 14.753 14.34 17.393 14.34 L 17.393 14.34 L 17.393 14.34 Q 18.673 14.34 19.423 13.53 L 19.423 13.53 L 19.423 13.53 Q 20.173 12.72 20.173 11.3 L 20.173 11.3 L 20.173 5.76 L 20.173 5.76 Q 20.173 5.56 20.303 5.43 L 20.303 5.43 L 20.303 5.43 Q 20.433 5.3 20.633 5.3 L 20.633 5.3 L 21.553 5.3 L 21.553 5.3 Q 21.753 5.3 21.883 5.43 L 21.883 5.43 L 21.883 5.43 Q 22.013 5.56 22.013 5.76 L 22.013 5.76 L 22.013 15.24 L 22.013 15.24 Q 22.013 15.44 21.883 15.57 L 21.883 15.57 L 21.883 15.57 Q 21.753 15.7 21.553 15.7 L 21.553 15.7 L 20.693 15.7 L 20.693 15.7 Q 20.493 15.7 20.363 15.57 L 20.363 15.57 L 20.363 15.57 Q 20.233 15.44 20.233 15.24 L 20.233 15.24 L 20.233 14.34 L 20.233 14.34 Q 19.653 15.12 18.873 15.51 L 18.873 15.51 L 18.873 15.51 Q 18.093 15.9 16.893 15.9 L 16.893 15.9 L 16.893 15.9 Z  M 25.473 15.7 L 25.473 15.7 Q 25.273 15.7 25.143 15.57 L 25.143 15.57 L 25.143 15.57 Q 25.013 15.44 25.013 15.24 L 25.013 15.24 L 25.013 5.78 L 25.013 5.78 Q 25.013 5.58 25.143 5.44 L 25.143 5.44 L 25.143 5.44 Q 25.273 5.3 25.473 5.3 L 25.473 5.3 L 26.313 5.3 L 26.313 5.3 Q 26.533 5.3 26.663 5.43 L 26.663 5.43 L 26.663 5.43 Q 26.793 5.56 26.793 5.78 L 26.793 5.78 L 26.793 6.66 L 26.793 6.66 Q 27.613 5.3 29.573 5.3 L 29.573 5.3 L 30.353 5.3 L 30.353 5.3 Q 30.573 5.3 30.693 5.42 L 30.693 5.42 L 30.693 5.42 Q 30.813 5.54 30.813 5.76 L 30.813 5.76 L 30.813 6.5 L 30.813 6.5 Q 30.813 6.7 30.693 6.83 L 30.693 6.83 L 30.693 6.83 Q 30.573 6.96 30.353 6.96 L 30.353 6.96 L 29.213 6.96 L 29.213 6.96 Q 28.113 6.96 27.483 7.6 L 27.483 7.6 L 27.483 7.6 Q 26.853 8.24 26.853 9.34 L 26.853 9.34 L 26.853 15.24 L 26.853 15.24 Q 26.853 15.44 26.713 15.57 L 26.713 15.57 L 26.713 15.57 Q 26.573 15.7 26.373 15.7 L 26.373 15.7 L 25.473 15.7 L 25.473 15.7 Z  M 36.453 15.9 L 36.453 15.9 Q 34.413 15.9 33.193 14.63 L 33.193 14.63 L 33.193 14.63 Q 31.973 13.36 31.853 11.16 L 31.853 11.16 L 31.833 10.48 L 31.853 9.82 L 31.853 9.82 Q 31.973 7.66 33.193 6.38 L 33.193 6.38 L 33.193 6.38 Q 34.413 5.1 36.453 5.1 L 36.453 5.1 L 36.453 5.1 Q 38.653 5.1 39.863 6.5 L 39.863 6.5 L 39.863 6.5 Q 41.073 7.9 41.073 10.3 L 41.073 10.3 L 41.073 10.66 L 41.073 10.66 Q 41.073 10.86 40.943 10.99 L 40.943 10.99 L 40.943 10.99 Q 40.813 11.12 40.613 11.12 L 40.613 11.12 L 33.673 11.12 L 33.673 11.3 L 33.673 11.3 Q 33.733 12.6 34.473 13.52 L 34.473 13.52 L 34.473 13.52 Q 35.213 14.44 36.433 14.44 L 36.433 14.44 L 36.433 14.44 Q 37.373 14.44 37.963 14.07 L 37.963 14.07 L 37.963 14.07 Q 38.553 13.7 38.853 13.3 L 38.853 13.3 L 38.853 13.3 Q 39.033 13.06 39.133 13.01 L 39.133 13.01 L 39.133 13.01 Q 39.233 12.96 39.473 12.96 L 39.473 12.96 L 40.353 12.96 L 40.353 12.96 Q 40.533 12.96 40.663 13.06 L 40.663 13.06 L 40.663 13.06 Q 40.793 13.16 40.793 13.32 L 40.793 13.32 L 40.793 13.32 Q 40.793 13.76 40.253 14.38 L 40.253 14.38 L 40.253 14.38 Q 39.713 15 38.723 15.45 L 38.723 15.45 L 38.723 15.45 Q 37.733 15.9 36.453 15.9 L 36.453 15.9 L 36.453 15.9 Z  M 33.673 9.76 L 39.253 9.76 L 39.253 9.7 L 39.253 9.7 Q 39.253 8.3 38.493 7.42 L 38.493 7.42 L 38.493 7.42 Q 37.733 6.54 36.453 6.54 L 36.453 6.54 L 36.453 6.54 Q 35.153 6.54 34.413 7.42 L 34.413 7.42 L 34.413 7.42 Q 33.673 8.3 33.673 9.7 L 33.673 9.7 L 33.673 9.76 L 33.673 9.76 Z  M 43.993 15.7 L 43.993 15.7 Q 43.793 15.7 43.663 15.57 L 43.663 15.57 L 43.663 15.57 Q 43.533 15.44 43.533 15.24 L 43.533 15.24 L 43.533 1.96 L 43.533 1.96 Q 43.533 1.74 43.663 1.62 L 43.663 1.62 L 43.663 1.62 Q 43.793 1.5 43.993 1.5 L 43.993 1.5 L 44.853 1.5 L 44.853 1.5 Q 45.053 1.5 45.183 1.63 L 45.183 1.63 L 45.183 1.63 Q 45.313 1.76 45.313 1.96 L 45.313 1.96 L 45.313 8.94 L 49.313 5.64 L 49.313 5.64 Q 49.613 5.42 49.733 5.36 L 49.733 5.36 L 49.733 5.36 Q 49.853 5.3 50.113 5.3 L 50.113 5.3 L 51.113 5.3 L 51.113 5.3 Q 51.293 5.3 51.403 5.41 L 51.403 5.41 L 51.403 5.41 Q 51.513 5.52 51.513 5.72 L 51.513 5.72 L 51.513 5.72 Q 51.513 5.9 51.293 6.1 L 51.293 6.1 L 46.613 9.94 L 51.793 14.9 L 51.793 14.9 Q 52.013 15.12 52.013 15.28 L 52.013 15.28 L 52.013 15.28 Q 52.013 15.46 51.903 15.58 L 51.903 15.58 L 51.903 15.58 Q 51.793 15.7 51.613 15.7 L 51.613 15.7 L 50.633 15.7 L 50.633 15.7 Q 50.333 15.7 50.203 15.64 L 50.203 15.64 L 50.203 15.64 Q 50.073 15.58 49.833 15.36 L 49.833 15.36 L 45.313 11.08 L 45.313 15.24 L 45.313 15.24 Q 45.313 15.44 45.183 15.57 L 45.183 15.57 L 45.183 15.57 Q 45.053 15.7 44.853 15.7 L 44.853 15.7 L 43.993 15.7 L 43.993 15.7 Z  M 56.453 15.9 L 56.453 15.9 Q 55.473 15.9 54.643 15.5 L 54.643 15.5 L 54.643 15.5 Q 53.813 15.1 53.323 14.41 L 53.323 14.41 L 53.323 14.41 Q 52.833 13.72 52.833 12.88 L 52.833 12.88 L 52.833 12.88 Q 52.833 11.56 53.913 10.72 L 53.913 10.72 L 53.913 10.72 Q 54.993 9.88 56.853 9.6 L 56.853 9.6 L 59.853 9.18 L 59.853 8.6 L 59.853 8.6 Q 59.853 6.54 57.473 6.54 L 57.473 6.54 L 57.473 6.54 Q 56.553 6.54 55.993 6.91 L 55.993 6.91 L 55.993 6.91 Q 55.433 7.28 55.173 7.78 L 55.173 7.78 L 55.173 7.78 Q 55.093 7.98 55.003 8.05 L 55.003 8.05 L 55.003 8.05 Q 54.913 8.12 54.753 8.12 L 54.753 8.12 L 53.973 8.12 L 53.973 8.12 Q 53.793 8.12 53.663 7.99 L 53.663 7.99 L 53.663 7.99 Q 53.533 7.86 53.533 7.68 L 53.533 7.68 L 53.533 7.68 Q 53.533 7.22 53.963 6.61 L 53.963 6.61 L 53.963 6.61 Q 54.393 6 55.293 5.55 L 55.293 5.55 L 55.293 5.55 Q 56.193 5.1 57.493 5.1 L 57.493 5.1 L 57.493 5.1 Q 59.733 5.1 60.703 6.14 L 60.703 6.14 L 60.703 6.14 Q 61.673 7.18 61.673 8.74 L 61.673 8.74 L 61.673 15.24 L 61.673 15.24 Q 61.673 15.44 61.543 15.57 L 61.543 15.57 L 61.543 15.57 Q 61.413 15.7 61.213 15.7 L 61.213 15.7 L 60.333 15.7 L 60.333 15.7 Q 60.133 15.7 60.013 15.57 L 60.013 15.57 L 60.013 15.57 Q 59.893 15.44 59.893 15.24 L 59.893 15.24 L 59.893 14.36 L 59.893 14.36 Q 59.453 15.02 58.613 15.46 L 58.613 15.46 L 58.613 15.46 Q 57.773 15.9 56.453 15.9 L 56.453 15.9 L 56.453 15.9 Z  M 56.853 14.44 L 56.853 14.44 Q 58.173 14.44 59.013 13.58 L 59.013 13.58 L 59.013 13.58 Q 59.853 12.72 59.853 11.08 L 59.853 11.08 L 59.853 10.52 L 57.513 10.86 L 57.513 10.86 Q 56.073 11.06 55.333 11.54 L 55.333 11.54 L 55.333 11.54 Q 54.593 12.02 54.593 12.74 L 54.593 12.74 L 54.593 12.74 Q 54.593 13.56 55.263 14 L 55.263 14 L 55.263 14 Q 55.933 14.44 56.853 14.44 L 56.853 14.44 L 56.853 14.44 Z  M 66.393 15.7 L 66.393 15.7 Q 66.193 15.7 66.063 15.57 L 66.063 15.57 L 66.063 15.57 Q 65.933 15.44 65.933 15.24 L 65.933 15.24 L 65.933 3.42 L 62.073 3.42 L 62.073 3.42 Q 61.873 3.42 61.743 3.29 L 61.743 3.29 L 61.743 3.29 Q 61.613 3.16 61.613 2.96 L 61.613 2.96 L 61.613 2.18 L 61.613 2.18 Q 61.613 1.96 61.743 1.83 L 61.743 1.83 L 61.743 1.83 Q 61.873 1.7 62.073 1.7 L 62.073 1.7 L 71.673 1.7 L 71.673 1.7 Q 71.893 1.7 72.013 1.83 L 72.013 1.83 L 72.013 1.83 Q 72.133 1.96 72.133 2.18 L 72.133 2.18 L 72.133 2.96 L 72.133 2.96 Q 72.133 3.16 72.003 3.29 L 72.003 3.29 L 72.003 3.29 Q 71.873 3.42 71.673 3.42 L 71.673 3.42 L 67.833 3.42 L 67.833 15.24 L 67.833 15.24 Q 67.833 15.44 67.693 15.57 L 67.693 15.57 L 67.693 15.57 Q 67.553 15.7 67.353 15.7 L 67.353 15.7 L 66.393 15.7 L 66.393 15.7 Z " fill="rgb(0,0,0)"/><path d=" M 5.953 15.9 L 5.953 15.9 Q 3.913 15.9 2.693 14.63 L 2.693 14.63 L 2.693 14.63 Q 1.473 13.36 1.353 11.16 L 1.353 11.16 L 1.333 10.48 L 1.353 9.82 L 1.353 9.82 Q 1.473 7.66 2.693 6.38 L 2.693 6.38 L 2.693 6.38 Q 3.913 5.1 5.953 5.1 L 5.953 5.1 L 5.953 5.1 Q 8.153 5.1 9.363 6.5 L 9.363 6.5 L 9.363 6.5 Q 10.573 7.9 10.573 10.3 L 10.573 10.3 L 10.573 10.66 L 10.573 10.66 Q 10.573 10.86 10.443 10.99 L 10.443 10.99 L 10.443 10.99 Q 10.313 11.12 10.113 11.12 L 10.113 11.12 L 3.173 11.12 L 3.173 11.3 L 3.173 11.3 Q 3.233 12.6 3.973 13.52 L 3.973 13.52 L 3.973 13.52 Q 4.713 14.44 5.933 14.44 L 5.933 14.44 L 5.933 14.44 Q 6.873 14.44 7.463 14.07 L 7.463 14.07 L 7.463 14.07 Q 8.053 13.7 8.353 13.3 L 8.353 13.3 L 8.353 13.3 Q 8.533 13.06 8.633 13.01 L 8.633 13.01 L 8.633 13.01 Q 8.733 12.96 8.973 12.96 L 8.973 12.96 L 9.853 12.96 L 9.853 12.96 Q 10.033 12.96 10.163 13.06 L 10.163 13.06 L 10.163 13.06 Q 10.293 13.16 10.293 13.32 L 10.293 13.32 L 10.293 13.32 Q 10.293 13.76 9.753 14.38 L 9.753 14.38 L 9.753 14.38 Q 9.213 15 8.223 15.45 L 8.223 15.45 L 8.223 15.45 Q 7.233 15.9 5.953 15.9 L 5.953 15.9 L 5.953 15.9 Z  M 3.173 9.76 L 8.753 9.76 L 8.753 9.7 L 8.753 9.7 Q 8.753 8.3 7.993 7.42 L 7.993 7.42 L 7.993 7.42 Q 7.233 6.54 5.953 6.54 L 5.953 6.54 L 5.953 6.54 Q 4.653 6.54 3.913 7.42 L 3.913 7.42 L 3.913 7.42 Q 3.173 8.3 3.173 9.7 L 3.173 9.7 L 3.173 9.76 L 3.173 9.76 Z  M 16.893 15.9 L 16.893 15.9 Q 14.993 15.9 13.953 14.67 L 13.953 14.67 L 13.953 14.67 Q 12.913 13.44 12.913 11.4 L 12.913 11.4 L 12.913 5.76 L 12.913 5.76 Q 12.913 5.56 13.043 5.43 L 13.043 5.43 L 13.043 5.43 Q 13.173 5.3 13.373 5.3 L 13.373 5.3 L 14.293 5.3 L 14.293 5.3 Q 14.493 5.3 14.623 5.43 L 14.623 5.43 L 14.623 5.43 Q 14.753 5.56 14.753 5.76 L 14.753 5.76 L 14.753 11.3 L 14.753 11.3 Q 14.753 14.34 17.393 14.34 L 17.393 14.34 L 17.393 14.34 Q 18.673 14.34 19.423 13.53 L 19.423 13.53 L 19.423 13.53 Q 20.173 12.72 20.173 11.3 L 20.173 11.3 L 20.173 5.76 L 20.173 5.76 Q 20.173 5.56 20.303 5.43 L 20.303 5.43 L 20.303 5.43 Q 20.433 5.3 20.633 5.3 L 20.633 5.3 L 21.553 5.3 L 21.553 5.3 Q 21.753 5.3 21.883 5.43 L 21.883 5.43 L 21.883 5.43 Q 22.013 5.56 22.013 5.76 L 22.013 5.76 L 22.013 15.24 L 22.013 15.24 Q 22.013 15.44 21.883 15.57 L 21.883 15.57 L 21.883 15.57 Q 21.753 15.7 21.553 15.7 L 21.553 15.7 L 20.693 15.7 L 20.693 15.7 Q 20.493 15.7 20.363 15.57 L 20.363 15.57 L 20.363 15.57 Q 20.233 15.44 20.233 15.24 L 20.233 15.24 L 20.233 14.34 L 20.233 14.34 Q 19.653 15.12 18.873 15.51 L 18.873 15.51 L 18.873 15.51 Q 18.093 15.9 16.893 15.9 L 16.893 15.9 L 16.893 15.9 Z  M 25.473 15.7 L 25.473 15.7 Q 25.273 15.7 25.143 15.57 L 25.143 15.57 L 25.143 15.57 Q 25.013 15.44 25.013 15.24 L 25.013 15.24 L 25.013 5.78 L 25.013 5.78 Q 25.013 5.58 25.143 5.44 L 25.143 5.44 L 25.143 5.44 Q 25.273 5.3 25.473 5.3 L 25.473 5.3 L 26.313 5.3 L 26.313 5.3 Q 26.533 5.3 26.663 5.43 L 26.663 5.43 L 26.663 5.43 Q 26.793 5.56 26.793 5.78 L 26.793 5.78 L 26.793 6.66 L 26.793 6.66 Q 27.613 5.3 29.573 5.3 L 29.573 5.3 L 30.353 5.3 L 30.353 5.3 Q 30.573 5.3 30.693 5.42 L 30.693 5.42 L 30.693 5.42 Q 30.813 5.54 30.813 5.76 L 30.813 5.76 L 30.813 6.5 L 30.813 6.5 Q 30.813 6.7 30.693 6.83 L 30.693 6.83 L 30.693 6.83 Q 30.573 6.96 30.353 6.96 L 30.353 6.96 L 29.213 6.96 L 29.213 6.96 Q 28.113 6.96 27.483 7.6 L 27.483 7.6 L 27.483 7.6 Q 26.853 8.24 26.853 9.34 L 26.853 9.34 L 26.853 15.24 L 26.853 15.24 Q 26.853 15.44 26.713 15.57 L 26.713 15.57 L 26.713 15.57 Q 26.573 15.7 26.373 15.7 L 26.373 15.7 L 25.473 15.7 L 25.473 15.7 Z  M 36.453 15.9 L 36.453 15.9 Q 34.413 15.9 33.193 14.63 L 33.193 14.63 L 33.193 14.63 Q 31.973 13.36 31.853 11.16 L 31.853 11.16 L 31.833 10.48 L 31.853 9.82 L 31.853 9.82 Q 31.973 7.66 33.193 6.38 L 33.193 6.38 L 33.193 6.38 Q 34.413 5.1 36.453 5.1 L 36.453 5.1 L 36.453 5.1 Q 38.653 5.1 39.863 6.5 L 39.863 6.5 L 39.863 6.5 Q 41.073 7.9 41.073 10.3 L 41.073 10.3 L 41.073 10.66 L 41.073 10.66 Q 41.073 10.86 40.943 10.99 L 40.943 10.99 L 40.943 10.99 Q 40.813 11.12 40.613 11.12 L 40.613 11.12 L 33.673 11.12 L 33.673 11.3 L 33.673 11.3 Q 33.733 12.6 34.473 13.52 L 34.473 13.52 L 34.473 13.52 Q 35.213 14.44 36.433 14.44 L 36.433 14.44 L 36.433 14.44 Q 37.373 14.44 37.963 14.07 L 37.963 14.07 L 37.963 14.07 Q 38.553 13.7 38.853 13.3 L 38.853 13.3 L 38.853 13.3 Q 39.033 13.06 39.133 13.01 L 39.133 13.01 L 39.133 13.01 Q 39.233 12.96 39.473 12.96 L 39.473 12.96 L 40.353 12.96 L 40.353 12.96 Q 40.533 12.96 40.663 13.06 L 40.663 13.06 L 40.663 13.06 Q 40.793 13.16 40.793 13.32 L 40.793 13.32 L 40.793 13.32 Q 40.793 13.76 40.253 14.38 L 40.253 14.38 L 40.253 14.38 Q 39.713 15 38.723 15.45 L 38.723 15.45 L 38.723 15.45 Q 37.733 15.9 36.453 15.9 L 36.453 15.9 L 36.453 15.9 Z  M 33.673 9.76 L 39.253 9.76 L 39.253 9.7 L 39.253 9.7 Q 39.253 8.3 38.493 7.42 L 38.493 7.42 L 38.493 7.42 Q 37.733 6.54 36.453 6.54 L 36.453 6.54 L 36.453 6.54 Q 35.153 6.54 34.413 7.42 L 34.413 7.42 L 34.413 7.42 Q 33.673 8.3 33.673 9.7 L 33.673 9.7 L 33.673 9.76 L 33.673 9.76 Z  M 43.993 15.7 L 43.993 15.7 Q 43.793 15.7 43.663 15.57 L 43.663 15.57 L 43.663 15.57 Q 43.533 15.44 43.533 15.24 L 43.533 15.24 L 43.533 1.96 L 43.533 1.96 Q 43.533 1.74 43.663 1.62 L 43.663 1.62 L 43.663 1.62 Q 43.793 1.5 43.993 1.5 L 43.993 1.5 L 44.853 1.5 L 44.853 1.5 Q 45.053 1.5 45.183 1.63 L 45.183 1.63 L 45.183 1.63 Q 45.313 1.76 45.313 1.96 L 45.313 1.96 L 45.313 8.94 L 49.313 5.64 L 49.313 5.64 Q 49.613 5.42 49.733 5.36 L 49.733 5.36 L 49.733 5.36 Q 49.853 5.3 50.113 5.3 L 50.113 5.3 L 51.113 5.3 L 51.113 5.3 Q 51.293 5.3 51.403 5.41 L 51.403 5.41 L 51.403 5.41 Q 51.513 5.52 51.513 5.72 L 51.513 5.72 L 51.513 5.72 Q 51.513 5.9 51.293 6.1 L 51.293 6.1 L 46.613 9.94 L 51.793 14.9 L 51.793 14.9 Q 52.013 15.12 52.013 15.28 L 52.013 15.28 L 52.013 15.28 Q 52.013 15.46 51.903 15.58 L 51.903 15.58 L 51.903 15.58 Q 51.793 15.7 51.613 15.7 L 51.613 15.7 L 50.633 15.7 L 50.633 15.7 Q 50.333 15.7 50.203 15.64 L 50.203 15.64 L 50.203 15.64 Q 50.073 15.58 49.833 15.36 L 49.833 15.36 L 45.313 11.08 L 45.313 15.24 L 45.313 15.24 Q 45.313 15.44 45.183 15.57 L 45.183 15.57 L 45.183 15.57 Q 45.053 15.7 44.853 15.7 L 44.853 15.7 L 43.993 15.7 L 43.993 15.7 Z  M 56.453 15.9 L 56.453 15.9 Q 55.473 15.9 54.643 15.5 L 54.643 15.5 L 54.643 15.5 Q 53.813 15.1 53.323 14.41 L 53.323 14.41 L 53.323 14.41 Q 52.833 13.72 52.833 12.88 L 52.833 12.88 L 52.833 12.88 Q 52.833 11.56 53.913 10.72 L 53.913 10.72 L 53.913 10.72 Q 54.993 9.88 56.853 9.6 L 56.853 9.6 L 59.853 9.18 L 59.853 8.6 L 59.853 8.6 Q 59.853 6.54 57.473 6.54 L 57.473 6.54 L 57.473 6.54 Q 56.553 6.54 55.993 6.91 L 55.993 6.91 L 55.993 6.91 Q 55.433 7.28 55.173 7.78 L 55.173 7.78 L 55.173 7.78 Q 55.093 7.98 55.003 8.05 L 55.003 8.05 L 55.003 8.05 Q 54.913 8.12 54.753 8.12 L 54.753 8.12 L 53.973 8.12 L 53.973 8.12 Q 53.793 8.12 53.663 7.99 L 53.663 7.99 L 53.663 7.99 Q 53.533 7.86 53.533 7.68 L 53.533 7.68 L 53.533 7.68 Q 53.533 7.22 53.963 6.61 L 53.963 6.61 L 53.963 6.61 Q 54.393 6 55.293 5.55 L 55.293 5.55 L 55.293 5.55 Q 56.193 5.1 57.493 5.1 L 57.493 5.1 L 57.493 5.1 Q 59.733 5.1 60.703 6.14 L 60.703 6.14 L 60.703 6.14 Q 61.673 7.18 61.673 8.74 L 61.673 8.74 L 61.673 15.24 L 61.673 15.24 Q 61.673 15.44 61.543 15.57 L 61.543 15.57 L 61.543 15.57 Q 61.413 15.7 61.213 15.7 L 61.213 15.7 L 60.333 15.7 L 60.333 15.7 Q 60.133 15.7 60.013 15.57 L 60.013 15.57 L 60.013 15.57 Q 59.893 15.44 59.893 15.24 L 59.893 15.24 L 59.893 14.36 L 59.893 14.36 Q 59.453 15.02 58.613 15.46 L 58.613 15.46 L 58.613 15.46 Q 57.773 15.9 56.453 15.9 L 56.453 15.9 L 56.453 15.9 Z  M 56.853 14.44 L 56.853 14.44 Q 58.173 14.44 59.013 13.58 L 59.013 13.58 L 59.013 13.58 Q 59.853 12.72 59.853 11.08 L 59.853 11.08 L 59.853 10.52 L 57.513 10.86 L 57.513 10.86 Q 56.073 11.06 55.333 11.54 L 55.333 11.54 L 55.333 11.54 Q 54.593 12.02 54.593 12.74 L 54.593 12.74 L 54.593 12.74 Q 54.593 13.56 55.263 14 L 55.263 14 L 55.263 14 Q 55.933 14.44 56.853 14.44 L 56.853 14.44 L 56.853 14.44 Z  M 66.393 15.7 L 66.393 15.7 Q 66.193 15.7 66.063 15.57 L 66.063 15.57 L 66.063 15.57 Q 65.933 15.44 65.933 15.24 L 65.933 15.24 L 65.933 3.42 L 62.073 3.42 L 62.073 3.42 Q 61.873 3.42 61.743 3.29 L 61.743 3.29 L 61.743 3.29 Q 61.613 3.16 61.613 2.96 L 61.613 2.96 L 61.613 2.18 L 61.613 2.18 Q 61.613 1.96 61.743 1.83 L 61.743 1.83 L 61.743 1.83 Q 61.873 1.7 62.073 1.7 L 62.073 1.7 L 71.673 1.7 L 71.673 1.7 Q 71.893 1.7 72.013 1.83 L 72.013 1.83 L 72.013 1.83 Q 72.133 1.96 72.133 2.18 L 72.133 2.18 L 72.133 2.96 L 72.133 2.96 Q 72.133 3.16 72.003 3.29 L 72.003 3.29 L 72.003 3.29 Q 71.873 3.42 71.673 3.42 L 71.673 3.42 L 67.833 3.42 L 67.833 15.24 L 67.833 15.24 Q 67.833 15.44 67.693 15.57 L 67.693 15.57 L 67.693 15.57 Q 67.553 15.7 67.353 15.7 L 67.353 15.7 L 66.393 15.7 L 66.393 15.7 Z " fill="rgb(255,255,255)"/><g transform="matrix(1,0,0,1,88,-3)"><text transform="matrix(1,0,0,1,0,18.7)" style="font-family:'Rubik';font-weight:400;font-size:20px;font-style:normal;fill:#ffffff;stroke:none;">C</text></g></g></svg>